<?xml version="1.0" encoding="UTF-8"?>
<!DOCTYPE svg PUBLIC "-//W3C//DTD SVG 1.1//EN" "http://www.w3.org/Graphics/SVG/1.1/DTD/svg11.dtd">
<svg version="1.2" width="187.3mm" height="52mm" viewBox="0 0 18730 5200" preserveAspectRatio="xMidYMid" fill-rule="evenodd" stroke-width="28.222" stroke-linejoin="round" xmlns="http://www.w3.org/2000/svg">
 <defs class="ClipPathGroup">
  <clipPath id="presentation_clip_path" clipPathUnits="userSpaceOnUse">
   <rect x="0" y="0" width="18730" height="5200"/>
  </clipPath>
 </defs>
 <g>
  <g id="id2" class="Master_Slide">
   <g id="bg-id2" class="Background"/>
   <g id="bo-id2" class="BackgroundObjects"/>
  </g>
 </g>
 <g class="SlideGroup">
  <g>
   <g id="id1" class="Slide" clip-path="url(#presentation_clip_path)">
    <g class="Page">
     <g class="com.sun.star.drawing.ClosedBezierShape">
      <g id="id3">
       <rect class="BoundingBox" stroke="none" fill="none" x="2565" y="1549" width="536" height="2101"/>
       <path fill="rgb(193,44,63)" stroke="none" d="M 3069,3601 C 3067,3596 2783,3127 2783,2551 2783,1972 3054,1603 3057,1600 L 3095,1550 2956,1550 2944,1553 2938,1559 C 2935,1563 2565,1947 2565,2551 2565,3151 2944,3633 2948,3637 L 2957,3649 3100,3649 3069,3601 Z"/>
      </g>
     </g>
     <g class="com.sun.star.drawing.ClosedBezierShape">
      <g id="id4">
       <rect class="BoundingBox" stroke="none" fill="none" x="1550" y="1549" width="536" height="2101"/>
       <path fill="rgb(193,44,63)" stroke="none" d="M 1702,1550 L 1555,1550 1593,1600 C 1595,1603 1866,1972 1866,2551 1866,3127 1583,3596 1580,3601 L 1550,3649 1693,3649 1702,3637 C 1706,3633 2085,3151 2085,2551 2085,1947 1715,1563 1708,1556 L 1702,1550 Z"/>
      </g>
     </g>
     <g class="com.sun.star.drawing.ClosedBezierShape">
      <g id="id5">
       <rect class="BoundingBox" stroke="none" fill="none" x="3609" y="1933" width="1191" height="1333"/>
       <path fill="rgb(51,45,43)" stroke="none" d="M 4631,3121 C 4680,3076 4719,3021 4748,2958 4777,2895 4794,2825 4799,2749 4799,2748 4798,2746 4797,2745 4796,2744 4795,2743 4793,2743 L 4571,2743 C 4568,2743 4565,2746 4565,2748 4560,2794 4550,2836 4535,2876 4519,2915 4497,2950 4470,2979 4443,3009 4409,3032 4371,3048 4333,3065 4289,3074 4239,3074 4170,3074 4111,3060 4062,3034 4012,3007 3971,2971 3940,2927 3909,2882 3886,2831 3871,2774 3856,2717 3848,2658 3848,2599 3848,2540 3856,2481 3871,2424 3886,2367 3909,2316 3940,2271 3971,2227 4012,2191 4062,2164 4111,2138 4171,2124 4239,2124 4285,2124 4327,2130 4362,2142 4397,2154 4428,2172 4454,2194 4480,2215 4502,2242 4518,2271 4535,2301 4548,2335 4558,2371 4559,2373 4561,2375 4563,2375 L 4792,2375 4792,2375 C 4795,2375 4797,2372 4797,2369 4797,2369 4797,2368 4797,2367 4789,2299 4770,2238 4740,2185 4709,2131 4668,2085 4619,2048 4569,2011 4511,1982 4446,1962 4382,1943 4312,1933 4239,1933 4141,1933 4052,1951 3974,1986 3897,2022 3830,2070 3776,2131 3723,2191 3681,2262 3652,2343 3624,2423 3609,2509 3609,2599 3609,2690 3624,2777 3652,2857 3681,2937 3723,3008 3776,3069 3830,3129 3897,3177 3974,3212 4052,3247 4141,3265 4239,3265 4318,3265 4392,3252 4458,3227 4524,3202 4582,3167 4631,3121 Z"/>
      </g>
     </g>
     <g class="com.sun.star.drawing.ClosedBezierShape">
      <g id="id6">
       <rect class="BoundingBox" stroke="none" fill="none" x="4963" y="1933" width="1310" height="1333"/>
       <path fill="rgb(51,45,43)" stroke="none" d="M 6024,2599 C 6024,2658 6016,2717 6001,2774 5985,2831 5961,2882 5928,2927 5896,2971 5854,3007 5802,3034 5751,3060 5689,3074 5618,3074 5547,3074 5485,3060 5433,3034 5382,3007 5339,2971 5307,2927 5275,2882 5250,2831 5235,2774 5219,2717 5211,2658 5211,2599 5211,2540 5219,2481 5235,2424 5250,2367 5275,2316 5307,2271 5339,2227 5382,2191 5433,2164 5485,2138 5547,2124 5618,2124 5689,2124 5751,2138 5802,2164 5854,2191 5896,2227 5928,2271 5961,2316 5985,2367 6001,2424 6016,2481 6024,2540 6024,2599 Z M 6098,2131 C 6042,2070 5973,2022 5892,1986 5812,1951 5719,1933 5618,1933 5516,1933 5424,1951 5343,1986 5262,2022 5193,2070 5137,2131 5081,2191 5038,2262 5008,2343 4978,2423 4963,2509 4963,2599 4963,2690 4978,2777 5008,2857 5038,2937 5081,3008 5137,3069 5193,3129 5262,3177 5343,3212 5424,3247 5516,3265 5618,3265 5719,3265 5812,3247 5892,3212 5973,3177 6042,3129 6098,3069 6154,3009 6198,2937 6227,2857 6257,2777 6272,2690 6272,2599 6272,2509 6257,2423 6227,2343 6198,2262 6154,2191 6098,2131 Z"/>
      </g>
     </g>
     <g class="com.sun.star.drawing.ClosedBezierShape">
      <g id="id7">
       <rect class="BoundingBox" stroke="none" fill="none" x="6454" y="1963" width="1080" height="1273"/>
       <path fill="rgb(51,45,43)" stroke="none" d="M 7294,2599 C 7294,2662 7288,2721 7277,2775 7265,2829 7244,2876 7212,2916 7180,2956 7136,2987 7081,3010 7025,3032 6953,3044 6865,3044 L 6693,3044 6693,2154 6865,2154 C 6953,2154 7025,2166 7081,2188 7136,2211 7181,2242 7212,2282 7243,2322 7265,2369 7277,2423 7288,2477 7294,2536 7294,2599 Z M 7395,2150 C 7348,2092 7287,2046 7214,2013 7141,1980 7053,1963 6953,1963 L 6460,1963 C 6456,1963 6454,1965 6454,1969 L 6454,3229 C 6454,3232 6456,3235 6460,3235 L 6953,3235 C 7053,3235 7141,3218 7214,3185 7287,3152 7348,3106 7395,3048 7441,2991 7476,2923 7499,2846 7522,2769 7533,2686 7533,2599 7533,2512 7522,2429 7499,2352 7476,2275 7441,2207 7395,2150 Z"/>
      </g>
     </g>
     <g class="com.sun.star.drawing.ClosedBezierShape">
      <g id="id8">
       <rect class="BoundingBox" stroke="none" fill="none" x="7680" y="1963" width="963" height="1273"/>
       <path fill="rgb(51,45,43)" stroke="none" d="M 8636,3033 L 7919,3033 7919,2659 8589,2659 C 8592,2659 8595,2657 8595,2654 L 8595,2476 C 8595,2473 8592,2471 8589,2471 L 7919,2471 7919,2165 8624,2165 C 8627,2165 8629,2162 8629,2159 L 8629,1969 C 8629,1966 8627,1963 8624,1963 L 7686,1963 C 7682,1963 7680,1966 7680,1969 L 7680,3229 C 7680,3232 7682,3235 7686,3235 L 8636,3235 C 8639,3235 8642,3232 8642,3229 L 8642,3039 C 8642,3036 8639,3033 8636,3033 Z"/>
      </g>
     </g>
     <g class="com.sun.star.drawing.ClosedBezierShape">
      <g id="id9">
       <rect class="BoundingBox" stroke="none" fill="none" x="9242" y="1960" width="623" height="1273"/>
       <path fill="rgb(51,45,43)" stroke="none" d="M 9859,2308 L 9617,2308 9617,2220 C 9617,2184 9626,2160 9644,2149 9663,2136 9686,2130 9713,2130 9736,2130 9776,2131 9790,2133 9801,2134 9807,2136 9815,2138 9818,2139 9821,2140 9824,2140 9826,2141 9828,2140 9829,2139 9830,2138 9831,2137 9831,2135 L 9831,1978 C 9831,1975 9830,1973 9827,1973 9798,1965 9737,1960 9664,1960 9630,1960 9597,1963 9565,1970 9533,1977 9505,1990 9480,2010 9455,2030 9434,2058 9420,2095 9405,2131 9397,2179 9397,2237 L 9397,2308 9248,2308 C 9244,2308 9242,2310 9242,2313 L 9242,2464 C 9242,2467 9244,2469 9248,2469 L 9397,2469 9397,3226 C 9397,3229 9400,3232 9403,3232 L 9611,3232 C 9614,3232 9617,3229 9617,3226 L 9617,2469 9859,2469 C 9862,2469 9864,2467 9864,2464 L 9864,2313 C 9864,2310 9862,2308 9859,2308 Z"/>
      </g>
     </g>
     <g class="com.sun.star.drawing.ClosedBezierShape">
      <g id="id10">
       <rect class="BoundingBox" stroke="none" fill="none" x="9965" y="2283" width="984" height="975"/>
       <path fill="rgb(51,45,43)" stroke="none" d="M 10725,2769 C 10725,2808 10719,2847 10709,2885 10699,2922 10682,2956 10660,2986 10639,3016 10611,3041 10577,3059 10543,3077 10502,3087 10456,3087 10410,3087 10370,3077 10336,3059 10302,3041 10274,3016 10252,2986 10231,2957 10214,2922 10204,2885 10194,2847 10188,2808 10188,2769 10188,2731 10194,2692 10204,2654 10214,2616 10231,2582 10252,2552 10274,2523 10302,2499 10336,2481 10370,2462 10410,2453 10456,2453 10502,2453 10543,2462 10577,2481 10611,2499 10639,2523 10660,2552 10682,2582 10699,2616 10709,2654 10719,2692 10725,2731 10725,2769 Z M 10819,2421 C 10777,2378 10725,2344 10664,2320 10604,2295 10534,2283 10456,2283 10379,2283 10309,2295 10249,2320 10188,2344 10136,2378 10094,2421 10052,2463 10020,2515 9998,2575 9976,2634 9965,2699 9965,2769 9965,2840 9976,2906 9998,2965 10020,3024 10052,3076 10094,3119 10136,3162 10188,3196 10249,3220 10309,3244 10379,3257 10456,3257 10534,3257 10604,3244 10664,3220 10725,3196 10777,3162 10819,3119 10861,3076 10893,3024 10915,2965 10937,2906 10948,2840 10948,2769 10948,2699 10937,2634 10915,2575 10893,2515 10861,2463 10819,2421 Z"/>
      </g>
     </g>
     <g class="com.sun.star.drawing.ClosedBezierShape">
      <g id="id11">
       <rect class="BoundingBox" stroke="none" fill="none" x="11163" y="2282" width="565" height="951"/>
       <path fill="rgb(51,45,43)" stroke="none" d="M 11723,2288 C 11714,2287 11705,2286 11696,2285 L 11694,2285 C 11685,2284 11668,2283 11643,2283 11612,2283 11565,2289 11533,2301 11506,2311 11467,2328 11440,2349 11415,2368 11393,2390 11375,2414 11373,2417 11371,2419 11369,2422 L 11369,2313 C 11369,2310 11367,2308 11364,2308 L 11169,2308 C 11165,2308 11163,2310 11163,2313 L 11163,3226 C 11163,3229 11165,3232 11169,3232 L 11377,3232 C 11380,3232 11382,3229 11382,3226 L 11382,2792 C 11382,2742 11389,2698 11402,2659 11415,2622 11433,2589 11456,2563 11478,2538 11505,2518 11535,2505 11578,2486 11625,2482 11677,2487 11691,2489 11706,2491 11721,2494 11722,2494 11724,2493 11725,2492 11727,2491 11727,2490 11727,2488 L 11727,2294 C 11727,2291 11725,2289 11723,2288 Z"/>
      </g>
     </g>
     <g class="com.sun.star.drawing.ClosedBezierShape">
      <g id="id12">
       <rect class="BoundingBox" stroke="none" fill="none" x="13436" y="1933" width="1311" height="1333"/>
       <path fill="rgb(193,44,63)" stroke="none" d="M 14091,3074 C 14020,3074 13958,3060 13906,3034 13855,3007 13812,2971 13780,2927 13748,2882 13723,2831 13708,2774 13692,2717 13684,2658 13684,2599 13684,2539 13692,2481 13708,2424 13724,2367 13748,2316 13780,2271 13812,2227 13855,2191 13906,2164 13958,2138 14020,2124 14091,2124 14162,2124 14224,2138 14275,2164 14327,2191 14369,2227 14401,2271 14434,2316 14458,2367 14474,2424 14489,2481 14497,2540 14497,2599 14497,2658 14489,2717 14474,2774 14458,2831 14434,2882 14401,2927 14369,2971 14327,3007 14275,3034 14224,3060 14162,3074 14091,3074 Z M 14571,2131 C 14515,2071 14446,2022 14365,1986 14285,1951 14192,1933 14091,1933 13989,1933 13897,1951 13816,1986 13735,2022 13666,2070 13610,2131 13554,2191 13511,2262 13481,2343 13451,2423 13436,2509 13436,2599 13436,2690 13451,2777 13481,2857 13511,2937 13554,3008 13610,3069 13666,3129 13736,3177 13816,3212 13897,3247 13989,3265 14091,3265 14192,3265 14285,3247 14365,3212 14446,3177 14515,3129 14571,3069 14627,3009 14671,2937 14701,2857 14730,2776 14746,2690 14746,2599 14746,2509 14730,2423 14701,2343 14671,2262 14627,2191 14571,2131 Z"/>
      </g>
     </g>
     <g class="com.sun.star.drawing.ClosedBezierShape">
      <g id="id13">
       <rect class="BoundingBox" stroke="none" fill="none" x="14985" y="1963" width="1092" height="1273"/>
       <path fill="rgb(193,44,63)" stroke="none" d="M 15724,2447 C 15689,2476 15644,2491 15591,2491 L 15224,2491 15224,2154 15591,2154 C 15651,2154 15698,2167 15730,2192 15761,2216 15777,2260 15777,2322 15777,2376 15759,2418 15724,2447 Z M 15224,2661 L 15622,2661 C 15690,2661 15743,2677 15780,2710 15817,2742 15835,2789 15835,2850 15835,2911 15817,2960 15780,2993 15743,3027 15690,3044 15622,3044 L 15224,3044 15224,2661 Z M 15837,2550 C 15892,2525 15936,2491 15967,2448 16000,2402 16016,2345 16016,2281 16016,2175 15980,2095 15908,2042 15837,1989 15741,1963 15624,1963 L 14991,1963 C 14987,1963 14985,1965 14985,1969 L 14985,3229 C 14985,3232 14987,3235 14991,3235 L 15589,3235 C 15673,3235 15747,3226 15808,3207 15869,3189 15920,3164 15959,3132 15999,3100 16028,3062 16047,3019 16065,2975 16075,2928 16075,2878 16075,2791 16053,2718 16011,2660 15972,2605 15913,2568 15837,2550 Z"/>
      </g>
     </g>
     <g class="com.sun.star.drawing.ClosedBezierShape">
      <g id="id14">
       <rect class="BoundingBox" stroke="none" fill="none" x="16222" y="1963" width="963" height="1273"/>
       <path fill="rgb(193,44,63)" stroke="none" d="M 17178,3033 L 16461,3033 16461,2659 17131,2659 C 17134,2659 17137,2657 17137,2654 L 17137,2476 C 17137,2473 17134,2471 17131,2471 L 16461,2471 16461,2165 17166,2165 C 17169,2165 17171,2162 17171,2159 L 17171,1969 C 17171,1965 17169,1963 17166,1963 L 16228,1963 C 16224,1963 16222,1965 16222,1969 L 16222,3229 C 16222,3232 16224,3235 16228,3235 L 17178,3235 C 17181,3235 17184,3232 17184,3229 L 17184,3039 C 17184,3036 17181,3033 17178,3033 Z"/>
      </g>
     </g>
     <g class="com.sun.star.drawing.ClosedBezierShape">
      <g id="id15">
       <rect class="BoundingBox" stroke="none" fill="none" x="12239" y="1963" width="1133" height="1273"/>
       <path fill="rgb(193,44,63)" stroke="none" d="M 12836,2465 L 13330,1972 C 13332,1971 13332,1968 13331,1966 13330,1964 13328,1963 13326,1963 L 13045,1963 C 13044,1963 13042,1964 13041,1965 L 12478,2526 12478,1969 C 12478,1965 12476,1963 12473,1963 L 12245,1963 C 12241,1963 12239,1965 12239,1969 L 12239,3229 C 12239,3232 12241,3235 12245,3235 L 12473,3235 C 12476,3235 12478,3232 12478,3229 L 12478,2822 12663,2638 13080,3232 C 13081,3234 13082,3235 13084,3235 L 13365,3235 C 13367,3235 13369,3234 13370,3232 13371,3230 13371,3228 13370,3226 L 12836,2465 Z"/>
      </g>
     </g>
    </g>
   </g>
  </g>
 </g>
</svg>