<?xml version="1.0" encoding="UTF-8"?>
<!DOCTYPE svg PUBLIC "-//W3C//DTD SVG 1.1//EN" "http://www.w3.org/Graphics/SVG/1.1/DTD/svg11.dtd">
<svg version="1.2" width="135.4mm" height="95mm" viewBox="0 0 13540 9500" preserveAspectRatio="xMidYMid" fill-rule="evenodd" stroke-width="28.222" stroke-linejoin="round" xmlns="http://www.w3.org/2000/svg">
 <defs class="ClipPathGroup">
  <clipPath id="presentation_clip_path" clipPathUnits="userSpaceOnUse">
   <rect x="0" y="0" width="13540" height="9500"/>
  </clipPath>
 </defs>
 <g>
  <g id="id2" class="Master_Slide">
   <g id="bg-id2" class="Background"/>
   <g id="bo-id2" class="BackgroundObjects"/>
  </g>
 </g>
 <g class="SlideGroup">
  <g>
   <g id="id1" class="Slide" clip-path="url(#presentation_clip_path)">
    <g class="Page">
     <g class="com.sun.star.drawing.ClosedBezierShape">
      <g id="id3">
       <rect class="BoundingBox" stroke="none" fill="none" x="4556" y="2120" width="1222" height="5260"/>
       <path fill="rgb(193,44,63)" stroke="none" d="M 5011,4625 C 5011,3128 5712,2175 5720,2165 L 5754,2120 5503,2120 5495,2129 C 5485,2138 4556,3106 4556,4625 4556,6143 5512,7357 5521,7369 L 5530,7379 5726,7379 5777,7379 5749,7336 C 5742,7324 5011,6124 5011,4625 Z"/>
      </g>
     </g>
     <g class="com.sun.star.drawing.ClosedBezierShape">
      <g id="id4">
       <rect class="BoundingBox" stroke="none" fill="none" x="2120" y="2120" width="1222" height="5260"/>
       <path fill="rgb(193,44,63)" stroke="none" d="M 2394,2120 L 2143,2120 2177,2165 C 2184,2175 2886,3128 2886,4625 2886,6124 2155,7324 2147,7336 L 2120,7379 2367,7379 2376,7369 C 2385,7357 3341,6143 3341,4625 3341,3106 2412,2138 2402,2128 L 2394,2120 Z"/>
      </g>
     </g>
     <g class="com.sun.star.drawing.ClosedBezierShape">
      <g id="id5">
       <rect class="BoundingBox" stroke="none" fill="none" x="6388" y="2356" width="1192" height="1333"/>
       <path fill="rgb(51,45,43)" stroke="none" d="M 7410,3544 C 7459,3499 7498,3444 7527,3381 7556,3318 7573,3248 7578,3172 7578,3171 7577,3169 7576,3168 7575,3167 7574,3166 7572,3166 L 7350,3166 C 7347,3166 7344,3169 7344,3171 7339,3217 7329,3259 7314,3299 7298,3338 7276,3373 7249,3402 7222,3432 7188,3455 7150,3471 7112,3488 7068,3497 7018,3497 6949,3497 6890,3483 6841,3457 6791,3430 6750,3394 6719,3350 6688,3305 6665,3254 6650,3197 6635,3140 6627,3081 6627,3022 6627,2963 6635,2904 6650,2847 6665,2790 6688,2739 6719,2694 6750,2650 6791,2614 6841,2587 6890,2561 6950,2547 7018,2547 7064,2547 7106,2553 7141,2565 7176,2577 7207,2595 7233,2617 7259,2638 7281,2665 7297,2694 7314,2724 7327,2758 7337,2794 7338,2796 7340,2798 7342,2798 L 7571,2798 7571,2798 C 7574,2798 7576,2795 7576,2792 7576,2792 7576,2791 7576,2790 7568,2722 7549,2661 7519,2608 7488,2554 7447,2508 7398,2471 7348,2434 7290,2405 7225,2385 7161,2366 7091,2356 7018,2356 6920,2356 6831,2374 6753,2409 6676,2445 6609,2493 6555,2554 6502,2614 6460,2685 6431,2766 6403,2846 6388,2932 6388,3022 6388,3113 6403,3200 6431,3280 6460,3360 6502,3431 6555,3492 6609,3552 6676,3600 6753,3635 6831,3670 6920,3688 7018,3688 7097,3688 7171,3675 7237,3650 7303,3625 7361,3590 7410,3544 Z"/>
      </g>
     </g>
     <g class="com.sun.star.drawing.ClosedBezierShape">
      <g id="id6">
       <rect class="BoundingBox" stroke="none" fill="none" x="7742" y="2356" width="1310" height="1333"/>
       <path fill="rgb(51,45,43)" stroke="none" d="M 8803,3022 C 8803,3081 8795,3140 8780,3197 8764,3254 8740,3305 8707,3350 8675,3394 8633,3430 8581,3457 8530,3483 8468,3497 8397,3497 8326,3497 8264,3483 8212,3457 8161,3430 8118,3394 8086,3350 8054,3305 8029,3254 8014,3197 7998,3140 7990,3081 7990,3022 7990,2963 7998,2904 8014,2847 8029,2790 8054,2739 8086,2694 8118,2650 8161,2614 8212,2587 8264,2561 8326,2547 8397,2547 8468,2547 8530,2561 8581,2587 8633,2614 8675,2650 8707,2694 8740,2739 8764,2790 8780,2847 8795,2904 8803,2963 8803,3022 Z M 8877,2554 C 8821,2493 8752,2445 8671,2409 8591,2374 8498,2356 8397,2356 8295,2356 8203,2374 8122,2409 8041,2445 7972,2493 7916,2554 7860,2614 7817,2685 7787,2766 7757,2846 7742,2932 7742,3022 7742,3113 7757,3200 7787,3280 7817,3360 7860,3431 7916,3492 7972,3552 8041,3600 8122,3635 8203,3670 8295,3688 8397,3688 8498,3688 8591,3670 8671,3635 8752,3600 8821,3552 8877,3492 8933,3432 8977,3360 9006,3280 9036,3200 9051,3113 9051,3022 9051,2932 9036,2846 9006,2766 8977,2685 8933,2614 8877,2554 Z"/>
      </g>
     </g>
     <g class="com.sun.star.drawing.ClosedBezierShape">
      <g id="id7">
       <rect class="BoundingBox" stroke="none" fill="none" x="9233" y="2386" width="1080" height="1273"/>
       <path fill="rgb(51,45,43)" stroke="none" d="M 10073,3022 C 10073,3085 10067,3144 10056,3198 10044,3252 10023,3299 9991,3339 9959,3379 9915,3410 9860,3433 9804,3455 9732,3467 9644,3467 L 9472,3467 9472,2577 9644,2577 C 9732,2577 9804,2589 9860,2611 9915,2634 9960,2665 9991,2705 10022,2745 10044,2792 10056,2846 10067,2900 10073,2959 10073,3022 Z M 10174,2573 C 10127,2515 10066,2469 9993,2436 9920,2403 9832,2386 9732,2386 L 9239,2386 C 9235,2386 9233,2388 9233,2392 L 9233,3652 C 9233,3655 9235,3658 9239,3658 L 9732,3658 C 9832,3658 9920,3641 9993,3608 10066,3575 10127,3529 10174,3471 10220,3414 10255,3346 10278,3269 10301,3192 10312,3109 10312,3022 10312,2935 10301,2852 10278,2775 10255,2698 10220,2630 10174,2573 Z"/>
      </g>
     </g>
     <g class="com.sun.star.drawing.ClosedBezierShape">
      <g id="id8">
       <rect class="BoundingBox" stroke="none" fill="none" x="10460" y="2386" width="963" height="1273"/>
       <path fill="rgb(51,45,43)" stroke="none" d="M 11416,3456 L 10699,3456 10699,3082 11369,3082 C 11372,3082 11375,3080 11375,3077 L 11375,2899 C 11375,2896 11372,2894 11369,2894 L 10699,2894 10699,2588 11404,2588 C 11407,2588 11409,2585 11409,2582 L 11409,2392 C 11409,2389 11407,2386 11404,2386 L 10466,2386 C 10462,2386 10460,2389 10460,2392 L 10460,3652 C 10460,3655 10462,3658 10466,3658 L 11416,3658 C 11419,3658 11422,3655 11422,3652 L 11422,3462 C 11422,3459 11419,3456 11416,3456 Z"/>
      </g>
     </g>
     <g class="com.sun.star.drawing.ClosedBezierShape">
      <g id="id9">
       <rect class="BoundingBox" stroke="none" fill="none" x="6304" y="3958" width="623" height="1273"/>
       <path fill="rgb(51,45,43)" stroke="none" d="M 6921,4306 L 6679,4306 6679,4218 C 6679,4182 6688,4158 6706,4147 6725,4134 6748,4128 6775,4128 6798,4128 6838,4129 6852,4131 6863,4132 6869,4134 6877,4136 6880,4137 6883,4138 6886,4138 6888,4139 6890,4138 6891,4137 6892,4136 6893,4135 6893,4133 L 6893,3976 C 6893,3973 6892,3971 6889,3971 6860,3963 6799,3958 6726,3958 6692,3958 6659,3961 6627,3968 6595,3975 6567,3988 6542,4008 6517,4028 6496,4056 6482,4093 6467,4129 6459,4177 6459,4235 L 6459,4306 6310,4306 C 6306,4306 6304,4308 6304,4311 L 6304,4462 C 6304,4465 6306,4467 6310,4467 L 6459,4467 6459,5224 C 6459,5227 6462,5230 6465,5230 L 6673,5230 C 6676,5230 6679,5227 6679,5224 L 6679,4467 6921,4467 C 6924,4467 6926,4465 6926,4462 L 6926,4311 C 6926,4308 6924,4306 6921,4306 Z"/>
      </g>
     </g>
     <g class="com.sun.star.drawing.ClosedBezierShape">
      <g id="id10">
       <rect class="BoundingBox" stroke="none" fill="none" x="7028" y="4281" width="984" height="976"/>
       <path fill="rgb(51,45,43)" stroke="none" d="M 7788,4767 C 7788,4806 7782,4845 7772,4883 7762,4920 7745,4954 7723,4984 7702,5014 7674,5039 7640,5057 7606,5075 7565,5085 7519,5085 7473,5085 7433,5075 7399,5057 7365,5039 7337,5014 7315,4984 7294,4955 7277,4920 7267,4883 7257,4845 7251,4806 7251,4767 7251,4729 7257,4690 7267,4652 7277,4614 7294,4580 7315,4550 7337,4521 7365,4497 7399,4479 7433,4460 7473,4451 7519,4451 7565,4451 7606,4460 7640,4479 7674,4497 7702,4521 7723,4550 7745,4580 7762,4614 7772,4652 7782,4690 7788,4729 7788,4767 Z M 7882,4419 C 7840,4376 7788,4342 7727,4318 7667,4293 7597,4281 7519,4281 7442,4281 7372,4293 7312,4318 7251,4342 7199,4376 7157,4419 7115,4461 7083,4513 7061,4573 7039,4632 7028,4697 7028,4767 7028,4838 7039,4904 7061,4963 7083,5022 7115,5074 7157,5117 7199,5160 7251,5194 7312,5218 7372,5242 7442,5255 7519,5255 7597,5255 7667,5242 7727,5218 7788,5194 7840,5160 7882,5117 7924,5074 7956,5022 7978,4963 8000,4904 8011,4838 8011,4767 8011,4697 8000,4632 7978,4573 7956,4513 7924,4461 7882,4419 Z"/>
      </g>
     </g>
     <g class="com.sun.star.drawing.ClosedBezierShape">
      <g id="id11">
       <rect class="BoundingBox" stroke="none" fill="none" x="8224" y="4281" width="566" height="950"/>
       <path fill="rgb(51,45,43)" stroke="none" d="M 8785,4286 C 8776,4285 8767,4284 8758,4283 L 8756,4283 C 8747,4282 8730,4281 8705,4281 8674,4281 8627,4287 8595,4299 8568,4309 8529,4326 8502,4347 8477,4366 8455,4388 8437,4412 8435,4415 8433,4417 8431,4420 L 8431,4311 C 8431,4308 8429,4306 8426,4306 L 8231,4306 C 8227,4306 8225,4308 8225,4311 L 8225,5224 C 8225,5227 8227,5230 8231,5230 L 8439,5230 C 8442,5230 8444,5227 8444,5224 L 8444,4790 C 8444,4740 8451,4696 8464,4657 8477,4620 8495,4587 8518,4561 8540,4536 8567,4516 8597,4503 8640,4484 8687,4480 8739,4485 8753,4487 8768,4489 8783,4492 8784,4492 8786,4491 8787,4490 8789,4489 8789,4488 8789,4486 L 8789,4292 C 8789,4289 8787,4287 8785,4286 Z"/>
      </g>
     </g>
     <g class="com.sun.star.drawing.ClosedBezierShape">
      <g id="id12">
       <rect class="BoundingBox" stroke="none" fill="none" x="7646" y="5634" width="1311" height="1333"/>
       <path fill="rgb(193,44,63)" stroke="none" d="M 8301,6775 C 8230,6775 8168,6761 8116,6735 8065,6708 8022,6672 7990,6628 7958,6583 7933,6532 7918,6475 7902,6418 7894,6359 7894,6300 7894,6240 7902,6182 7918,6125 7934,6068 7958,6017 7990,5972 8022,5928 8065,5892 8116,5865 8168,5839 8230,5825 8301,5825 8372,5825 8434,5839 8485,5865 8537,5892 8579,5928 8611,5972 8644,6017 8668,6068 8684,6125 8699,6182 8707,6241 8707,6300 8707,6359 8699,6418 8684,6475 8668,6532 8644,6583 8611,6628 8579,6672 8537,6708 8485,6735 8434,6761 8372,6775 8301,6775 Z M 8781,5832 C 8725,5772 8656,5723 8575,5687 8495,5652 8402,5634 8301,5634 8199,5634 8107,5652 8026,5687 7945,5723 7876,5771 7820,5832 7764,5892 7721,5963 7691,6044 7661,6124 7646,6210 7646,6300 7646,6391 7661,6478 7691,6558 7721,6638 7764,6709 7820,6770 7876,6830 7946,6878 8026,6913 8107,6948 8199,6966 8301,6966 8402,6966 8495,6948 8575,6913 8656,6878 8725,6830 8781,6770 8837,6710 8881,6638 8911,6558 8940,6477 8956,6391 8956,6300 8956,6210 8940,6124 8911,6044 8881,5963 8837,5892 8781,5832 Z"/>
      </g>
     </g>
     <g class="com.sun.star.drawing.ClosedBezierShape">
      <g id="id13">
       <rect class="BoundingBox" stroke="none" fill="none" x="9195" y="5664" width="1091" height="1273"/>
       <path fill="rgb(193,44,63)" stroke="none" d="M 9934,6148 C 9899,6177 9854,6192 9801,6192 L 9434,6192 9434,5855 9801,5855 C 9861,5855 9908,5868 9940,5893 9971,5917 9987,5961 9987,6023 9987,6077 9969,6119 9934,6148 Z M 9434,6362 L 9832,6362 C 9900,6362 9953,6378 9990,6411 10027,6443 10045,6490 10045,6551 10045,6612 10027,6661 9990,6694 9953,6728 9900,6745 9832,6745 L 9434,6745 9434,6362 Z M 10047,6251 C 10102,6226 10146,6192 10177,6149 10210,6103 10226,6046 10226,5982 10226,5876 10190,5796 10118,5743 10047,5690 9951,5664 9834,5664 L 9201,5664 C 9197,5664 9195,5666 9195,5670 L 9195,6930 C 9195,6933 9197,6936 9201,6936 L 9799,6936 C 9883,6936 9957,6927 10018,6908 10079,6890 10130,6865 10169,6833 10209,6801 10238,6763 10257,6720 10275,6676 10285,6629 10285,6579 10285,6492 10263,6419 10221,6361 10182,6306 10123,6269 10047,6251 Z"/>
      </g>
     </g>
     <g class="com.sun.star.drawing.ClosedBezierShape">
      <g id="id14">
       <rect class="BoundingBox" stroke="none" fill="none" x="10432" y="5664" width="963" height="1273"/>
       <path fill="rgb(193,44,63)" stroke="none" d="M 11388,6734 L 10671,6734 10671,6360 11341,6360 C 11344,6360 11347,6358 11347,6355 L 11347,6177 C 11347,6174 11344,6172 11341,6172 L 10671,6172 10671,5866 11376,5866 C 11379,5866 11381,5863 11381,5860 L 11381,5670 C 11381,5666 11379,5664 11376,5664 L 10438,5664 C 10434,5664 10432,5666 10432,5670 L 10432,6930 C 10432,6933 10434,6936 10438,6936 L 11388,6936 C 11391,6936 11394,6933 11394,6930 L 11394,6740 C 11394,6737 11391,6734 11388,6734 Z"/>
      </g>
     </g>
     <g class="com.sun.star.drawing.ClosedBezierShape">
      <g id="id15">
       <rect class="BoundingBox" stroke="none" fill="none" x="6449" y="5664" width="1133" height="1273"/>
       <path fill="rgb(193,44,63)" stroke="none" d="M 7046,6166 L 7540,5673 C 7542,5672 7542,5669 7541,5667 7540,5665 7538,5664 7536,5664 L 7255,5664 C 7254,5664 7252,5665 7251,5666 L 6688,6227 6688,5670 C 6688,5666 6686,5664 6683,5664 L 6455,5664 C 6451,5664 6449,5666 6449,5670 L 6449,6930 C 6449,6933 6451,6936 6455,6936 L 6683,6936 C 6686,6936 6688,6933 6688,6930 L 6688,6523 6873,6339 7290,6933 C 7291,6935 7292,6936 7294,6936 L 7575,6936 C 7577,6936 7579,6935 7580,6933 7581,6931 7581,6929 7580,6927 L 7046,6166 Z"/>
      </g>
     </g>
    </g>
   </g>
  </g>
 </g>
</svg>